<?xml version="1.0" standalone="no"?>
<!DOCTYPE svg PUBLIC "-//W3C//DTD SVG 20010904//EN"
 "http://www.w3.org/TR/2001/REC-SVG-20010904/DTD/svg10.dtd">
<svg version="1.0" xmlns="http://www.w3.org/2000/svg"
 width="834.000000pt" height="834.000000pt" viewBox="0 0 834.000000 834.000000"
 preserveAspectRatio="xMidYMid meet">
<metadata>
Created by potrace 1.11, written by Peter Selinger 2001-2013
</metadata>
<g transform="translate(0.000000,834.000000) scale(0.100000,-0.100000)"
fill="#000000" stroke="none">
<path d="M4077 8063 c-8 -8 -9 -303 -2 -303 3 0 15 9 27 20 12 11 27 20 32 20
16 0 9 252 -7 262 -15 10 -41 10 -50 1z"/>
<path d="M4070 6175 l0 -145 -614 0 c-371 0 -617 -4 -621 -9 -3 -6 23 -105 59
-220 l64 -211 -1479 0 -1479 0 0 -2795 0 -2795 4170 0 4170 0 0 2795 0 2795
-1560 0 -1560 0 39 78 c46 92 134 339 126 352 -4 6 -237 10 -621 10 l-614 0 0
139 0 139 -31 6 c-17 3 -35 6 -40 6 -5 0 -9 -65 -9 -145z m-833 -1466 c65 -24
111 -99 98 -159 -10 -46 -48 -84 -134 -134 -43 -26 -86 -55 -96 -66 -18 -20
-17 -20 79 -20 97 0 98 0 127 31 16 18 32 29 36 26 3 -4 -1 -39 -8 -79 l-14
-73 -158 -3 -157 -3 0 34 c0 28 14 49 85 128 93 103 125 156 125 211 0 48 -32
88 -71 88 -37 0 -46 -20 -29 -69 14 -44 3 -75 -30 -86 -20 -6 -59 9 -72 29
-26 38 16 115 77 142 37 16 104 18 142 3z m699 -8 c77 -47 108 -125 102 -250
-8 -162 -89 -248 -214 -228 -59 10 -101 43 -131 105 -24 49 -28 69 -28 142 0
74 4 92 30 145 22 45 40 66 70 82 51 29 128 31 171 4z m1341 -9 c65 -46 102
-195 74 -298 -16 -60 -68 -132 -112 -154 -66 -34 -173 -19 -198 28 -25 47 -1
102 45 102 39 0 57 -28 50 -77 -5 -40 -4 -43 18 -43 12 0 30 8 39 18 20 22 47
96 47 129 0 20 -3 22 -19 13 -29 -15 -118 -12 -152 6 -67 34 -87 152 -39 229
45 73 176 98 247 47z m-697 -188 c0 -114 4 -213 10 -224 5 -10 21 -21 35 -24
14 -4 25 -11 25 -16 0 -6 -50 -10 -125 -10 -69 0 -125 3 -125 8 0 4 14 15 30
24 l30 17 0 174 c0 181 -2 190 -43 198 -31 7 -24 23 13 29 19 4 44 11 55 18
11 6 37 12 58 12 l37 0 0 -206z m-2634 -1188 c95 -45 115 -68 72 -82 -13 -4
-41 -28 -63 -53 -22 -25 -65 -72 -95 -105 l-55 -58 210 7 c212 7 245 10 245
24 0 4 -15 27 -32 51 -70 91 -67 84 -30 77 65 -13 178 -68 216 -105 46 -44 66
-87 66 -142 0 -52 -13 -76 -50 -95 -53 -27 -110 19 -126 103 -4 19 -13 36 -21
39 -8 3 -91 -15 -186 -40 -95 -25 -229 -58 -299 -74 -71 -15 -128 -30 -128
-33 0 -3 28 -15 63 -28 55 -20 81 -22 242 -22 177 0 180 0 209 25 46 39 62 40
122 3 31 -18 65 -42 76 -52 l21 -19 -22 -18 c-20 -16 -21 -26 -21 -171 0 -84
-5 -160 -10 -168 -9 -15 -153 -42 -177 -33 -7 3 -13 20 -13 38 0 21 -6 35 -16
39 -20 8 -318 8 -338 0 -9 -3 -16 -14 -16 -24 0 -10 -6 -22 -12 -28 -17 -13
-154 -36 -168 -27 -6 4 -10 88 -10 236 0 126 -3 229 -7 229 -3 0 -15 -8 -25
-17 -13 -11 -22 -13 -29 -6 -13 13 -49 148 -49 184 0 27 0 27 102 35 101 9
102 9 121 41 10 18 40 90 66 160 47 129 57 153 68 153 3 0 48 -20 99 -44z
m1221 27 c19 -7 16 -28 -6 -44 -17 -12 -20 -29 -23 -124 l-3 -110 104 -3 104
-3 47 51 c25 27 55 50 66 50 10 0 44 -22 74 -49 48 -42 53 -50 41 -65 -12 -14
-41 -16 -223 -16 l-210 0 6 -30 c3 -17 17 -55 32 -84 63 -129 173 -227 339
-302 47 -21 85 -42 85 -46 0 -5 -18 -31 -40 -59 -35 -44 -60 -101 -60 -136 0
-41 -64 -8 -158 81 -105 99 -158 195 -206 373 -13 48 -26 81 -29 73 -2 -8 -12
-42 -22 -75 -40 -139 -127 -260 -252 -353 -104 -77 -253 -145 -253 -116 0 3
38 42 83 88 169 167 244 322 259 531 l3 50 -164 5 c-119 4 -166 8 -169 18 -3
9 34 12 162 12 90 0 167 4 170 9 3 4 8 66 12 137 3 71 8 135 10 143 4 11 24
12 106 6 55 -4 107 -9 115 -12z m2455 2 c37 -4 70 -10 73 -14 2 -5 -7 -19 -20
-31 l-25 -23 0 -256 c1 -229 2 -253 15 -223 19 42 48 42 100 -3 51 -44 42 -65
-37 -81 -30 -6 -60 -14 -66 -18 -8 -5 -12 -52 -12 -159 0 -84 -4 -157 -8 -164
-9 -14 -146 -38 -168 -29 -11 4 -14 34 -14 155 0 82 -4 152 -9 155 -5 3 -64
-5 -132 -19 -132 -26 -179 -31 -179 -16 0 9 31 17 215 56 44 10 86 22 93 28 9
7 12 84 12 321 0 227 3 315 12 324 7 7 27 10 47 7 20 -2 66 -7 103 -10z m611
9 c39 -7 47 -23 22 -44 -14 -12 -21 -50 -9 -50 3 0 17 9 31 20 36 28 62 25
112 -15 24 -19 48 -35 52 -35 5 0 15 14 24 30 20 38 32 38 40 -2 27 -122 -26
-195 -112 -154 -34 16 -35 19 -30 57 4 34 3 39 -11 35 -10 -2 -38 -7 -64 -11
-27 -3 -48 -10 -48 -15 0 -5 21 -18 47 -30 65 -29 83 -47 83 -87 0 -60 -66
-96 -105 -57 -9 9 -23 34 -32 55 -8 22 -19 39 -24 39 -5 0 -30 -16 -56 -36
-27 -20 -63 -44 -80 -52 -18 -9 -33 -22 -33 -29 0 -19 662 -19 678 0 13 16
-29 114 -52 123 -9 4 -36 -9 -65 -30 -62 -46 -176 -98 -204 -94 -18 2 -13 9
30 40 29 21 65 56 80 80 25 37 28 52 33 152 l5 111 45 3 c101 7 155 -15 115
-48 -16 -13 -21 -70 -7 -70 5 0 21 14 37 30 16 17 36 30 46 30 18 0 119 -75
119 -88 0 -5 -44 -16 -97 -26 -126 -24 -137 -30 -78 -45 64 -16 102 -36 121
-66 14 -22 14 -27 -2 -61 -18 -37 -18 -37 7 -53 42 -28 70 -61 67 -79 -3 -13
-15 -17 -61 -19 -31 -1 -66 -7 -77 -13 -17 -9 -18 -14 -7 -31 10 -17 9 -22
-12 -38 -18 -14 -26 -32 -31 -71 l-7 -52 61 -41 c33 -23 65 -45 70 -49 7 -4 2
-16 -12 -31 -18 -19 -22 -35 -22 -84 0 -36 -5 -65 -12 -71 -7 -6 -49 -13 -94
-17 -70 -6 -82 -5 -87 9 -6 14 -33 16 -231 16 -180 0 -225 -3 -229 -14 -3 -8
-37 -18 -87 -26 -69 -11 -84 -11 -91 1 -5 8 -8 77 -6 154 l2 140 33 3 32 3 0
120 c0 98 3 121 15 125 8 4 53 -5 99 -20 75 -23 100 -26 234 -26 148 0 151 1
181 26 31 26 59 28 104 9 14 -6 17 -2 17 19 l0 26 -322 -2 -322 -3 -11 -36
c-20 -71 -64 -98 -120 -74 -72 29 -69 93 4 140 22 14 48 36 57 50 9 14 24 24
33 23 11 -2 25 15 44 51 24 49 27 65 27 161 0 59 3 110 7 113 8 9 86 9 136 1z
m-1063 -69 c35 -35 62 -66 59 -68 -2 -2 -29 -9 -59 -16 -82 -17 -81 -17 -78
-107 l3 -79 24 28 c32 35 58 34 104 -4 63 -52 49 -66 -68 -71 -57 -3 -60 -4
-60 -28 0 -19 10 -30 47 -50 62 -34 88 -58 105 -99 36 -84 -36 -146 -102 -88
-17 14 -31 41 -39 77 -13 51 -14 40 -15 -171 -1 -168 -4 -229 -13 -237 -7 -5
-42 -13 -77 -17 -49 -6 -65 -4 -72 6 -5 8 -9 76 -9 152 0 75 -3 137 -7 137 -4
0 -33 -18 -64 -40 -49 -34 -79 -48 -79 -37 0 2 18 48 41 102 39 97 89 253 89
281 0 9 -18 14 -62 16 -91 4 -89 26 4 30 l73 3 3 68 3 67 -72 0 -71 0 88 59
c49 32 114 80 144 105 30 25 64 46 75 46 12 0 48 -27 85 -65z m-575 4 c104
-85 93 -93 -135 -97 l-180 -3 0 -370 0 -369 94 0 95 0 42 50 c23 28 50 50 59
50 18 0 115 -77 125 -99 3 -8 2 -18 -3 -23 -12 -12 -1001 -5 -1005 7 -1 6 70
11 196 13 l197 2 0 370 0 369 -179 3 c-99 2 -182 6 -186 10 -25 24 23 28 364
28 l358 0 42 50 c23 28 48 50 54 50 7 0 35 -18 62 -41z m1465 -35 c15 -43 7
-99 -16 -125 -12 -13 -31 -19 -60 -19 -35 0 -47 5 -60 25 -22 33 -10 62 37 85
21 11 46 31 55 45 22 34 30 32 44 -11z m-680 -72 c49 -24 76 -80 60 -126 -13
-40 -25 -52 -61 -61 -39 -10 -69 21 -80 80 -5 28 -18 62 -29 77 -11 15 -20 32
-20 38 0 16 92 11 130 -8z m-24 -267 c90 -38 92 -185 2 -185 -54 0 -75 23 -92
102 -3 14 -18 40 -32 57 -14 17 -22 36 -18 42 8 14 92 4 140 -16z m-3101
-1490 c44 -44 30 -105 -46 -197 -22 -26 -39 -49 -39 -52 0 -11 91 -6 112 5 19
10 20 9 13 -23 -4 -18 -9 -36 -12 -40 -2 -5 -49 -8 -104 -8 l-100 0 45 64 c75
104 94 170 59 208 -20 22 -51 23 -75 1 -30 -27 -22 6 9 39 36 38 102 40 138 3z
m244 -1 c35 -29 51 -77 51 -154 0 -58 -25 -125 -55 -150 -10 -8 -35 -14 -57
-14 -71 2 -108 60 -108 169 0 146 84 220 169 149z m223 -106 c-4 -153 2 -195
26 -201 9 -3 -23 -5 -73 -5 -64 -1 -83 2 -67 8 22 9 23 12 20 142 -3 120 -5
133 -20 132 -30 -3 -21 5 35 30 86 40 82 44 79 -106z m267 102 c34 -35 46 -80
38 -146 -5 -47 -39 -100 -89 -137 -29 -22 -106 -39 -114 -26 -3 5 4 9 15 9 27
0 87 54 99 89 l10 29 -37 -5 c-76 -10 -123 73 -86 151 34 70 112 87 164 36z
m740 0 c34 -35 46 -80 38 -146 -5 -47 -39 -100 -89 -137 -29 -22 -106 -39
-114 -26 -3 5 4 9 15 9 27 0 87 54 99 89 l10 29 -37 -5 c-76 -10 -123 73 -86
151 34 70 112 87 164 36z m876 5 c44 -44 30 -105 -46 -197 -22 -26 -39 -49
-39 -52 0 -11 91 -6 112 5 19 10 20 9 13 -23 -4 -18 -9 -36 -12 -40 -2 -5 -49
-8 -104 -8 l-100 0 45 64 c75 104 94 170 59 208 -20 22 -51 23 -75 1 -30 -27
-22 6 9 39 36 38 102 40 138 3z m244 -1 c35 -29 51 -77 51 -154 0 -58 -25
-125 -55 -150 -10 -8 -35 -14 -57 -14 -71 2 -108 60 -108 169 0 146 84 220
169 149z m223 -106 c-4 -153 2 -195 26 -201 9 -3 -23 -5 -73 -5 -64 -1 -83 2
-67 8 22 9 23 12 20 142 -3 120 -5 133 -20 132 -30 -3 -21 5 35 30 86 40 82
44 79 -106z m267 102 c34 -35 46 -80 38 -146 -5 -47 -39 -100 -89 -137 -29
-22 -106 -39 -114 -26 -3 5 4 9 15 9 27 0 87 54 99 89 l10 29 -37 -5 c-76 -10
-123 73 -86 151 34 70 112 87 164 36z m713 -102 c-4 -153 2 -195 26 -201 9 -3
-23 -5 -73 -5 -64 -1 -83 2 -67 8 22 9 23 12 20 142 -3 120 -5 133 -20 132
-30 -3 -21 5 35 30 86 40 82 44 79 -106z m253 107 c44 -44 30 -105 -46 -197
-22 -26 -39 -49 -39 -52 0 -11 91 -6 112 5 19 10 20 9 13 -23 -4 -18 -9 -36
-12 -40 -2 -5 -49 -8 -104 -8 l-100 0 45 64 c75 104 94 170 59 208 -20 22 -51
23 -75 1 -30 -27 -22 6 9 39 36 38 102 40 138 3z m-2919 0 c-3 -9 -26 -81 -52
-161 -40 -125 -63 -170 -78 -153 -2 2 11 51 30 109 53 168 53 160 2 160 -24 0
-56 -7 -72 -15 -16 -9 -30 -14 -32 -12 -2 1 2 22 8 45 l10 42 95 0 c81 0 94
-2 89 -15z m2350 0 c-3 -9 -26 -81 -52 -161 -40 -125 -63 -170 -78 -153 -2 2
11 51 30 109 53 168 53 160 2 160 -24 0 -56 -7 -72 -15 -16 -9 -30 -14 -32
-12 -2 1 2 22 8 45 l10 42 95 0 c81 0 94 -2 89 -15z m-1576 -200 c0 -24 -2
-25 -65 -25 -63 0 -65 1 -65 25 0 24 2 25 65 25 63 0 65 -1 65 -25z m-1026
-54 c23 -25 13 -59 -20 -67 -30 -8 -54 11 -54 40 0 45 44 61 74 27z m370 0
c23 -25 13 -59 -20 -67 -30 -8 -54 11 -54 40 0 45 44 61 74 27z m1980 0 c23
-25 13 -59 -20 -67 -30 -8 -54 11 -54 40 0 45 44 61 74 27z m370 0 c23 -25 13
-59 -20 -67 -30 -8 -54 11 -54 40 0 45 44 61 74 27z"/>
<path d="M3816 4667 c-42 -63 -48 -295 -11 -372 24 -48 58 -54 86 -15 38 52
48 240 17 340 -21 69 -64 91 -92 47z"/>
<path d="M5145 4666 c-21 -32 -31 -144 -15 -189 20 -61 73 -73 105 -23 12 18
13 36 5 99 -16 124 -56 173 -95 113z"/>
<path d="M1790 2606 c0 -122 2 -145 16 -150 24 -9 327 -7 342 2 9 7 12 43 10
148 l-3 139 -182 3 -183 2 0 -144z"/>
<path d="M6242 2768 l3 -53 139 -3 c159 -3 169 1 164 62 l-3 41 -153 3 -153 3
3 -53z"/>
<path d="M6237 2666 c-3 -9 -29 -17 -66 -21 -34 -4 -63 -11 -66 -15 -14 -22
145 -44 166 -23 5 5 12 23 15 41 6 29 4 32 -19 32 -14 0 -27 -6 -30 -14z"/>
<path d="M6448 2649 c-27 -17 -48 -35 -48 -40 0 -5 51 -9 114 -9 107 0 117 2
143 24 15 13 26 26 23 29 -3 3 -30 1 -60 -4 -49 -8 -56 -7 -69 11 -19 28 -48
25 -103 -11z"/>
<path d="M6174 2557 c-3 -8 -4 -41 -2 -73 l3 -59 225 0 225 0 0 70 0 70 -223
3 c-182 2 -223 0 -228 -11z"/>
<path d="M2416 1414 c-13 -33 -6 -260 7 -279 29 -39 37 -7 37 146 0 140 -1
149 -19 149 -10 0 -22 -7 -25 -16z"/>
<path d="M2907 1423 c-11 -19 -15 -81 -9 -118 6 -31 12 -41 30 -43 21 -3 22 0
22 60 0 35 -3 73 -6 86 -6 21 -28 30 -37 15z"/>
<path d="M3647 1423 c-11 -19 -15 -81 -9 -118 6 -31 12 -41 30 -43 21 -3 22 0
22 60 0 35 -3 73 -6 86 -6 21 -28 30 -37 15z"/>
<path d="M4766 1414 c-13 -33 -6 -260 7 -279 29 -39 37 -7 37 146 0 140 -1
149 -19 149 -10 0 -22 -7 -25 -16z"/>
<path d="M5257 1423 c-11 -19 -15 -81 -9 -118 6 -31 12 -41 30 -43 21 -3 22 0
22 60 0 35 -3 73 -6 86 -6 21 -28 30 -37 15z"/>
</g>
</svg>
